<svg id="Layer_5" data-name="Layer 5" xmlns="http://www.w3.org/2000/svg" viewBox="0 0 519.92 599.26"><defs><style>.cls-1
{
    fill:none;
    stroke:#A3C2E0;
    opacity: 1;
    stroke-linejoin:
    round;stroke-width:7px;}

</style></defs><path class="cls-1" d="M631.38,330.57v59.22h0L580.09,419.4s-51.29-29.6-51.29-29.6h0Z" transform="translate(-114.96 -60.55)"/><polygon class="cls-1" points="208.67 151.56 208.67 210.79 157.38 240.4 157.38 181.18 208.67 151.56"/><path class="cls-1" d="M221.05,330.56h0L118.47,389.79h0V330.57L169.75,301Z" transform="translate(-114.96 -60.55)"/><polygon class="cls-1" points="362.54 358.86 362.54 418.08 311.25 447.69 311.25 388.47 311.26 388.47 362.54 358.86"/><path class="cls-1" d="M374.92,478.64v59.22l-51.29,29.61-51.29-29.61C297.91,523.1,349.35,493.39,374.92,478.64Z" transform="translate(-114.96 -60.55)"/><path class="cls-1" d="M374.92,360.18v59.23L221.05,508.24h0l-51.29,29.61V478.63L272.33,419.4h0Z" transform="translate(-114.96 -60.55)"/><path class="cls-1" d="M221.05,152.89v59.22l-51.29,29.62h0l-51.28-29.61Z" transform="translate(-114.96 -60.55)"/><path class="cls-1" d="M477.5,182.5,374.92,241.72V182.5l51.29-29.61Z" transform="translate(-114.96 -60.55)"/><path class="cls-1" d="M580.09,241.72h0l0,0Z" transform="translate(-114.96 -60.55)"/><path class="cls-1" d="M631.38,508.24h0L528.8,567.47V508.24l51.29-29.61Z" transform="translate(-114.96 -60.55)"/><path class="cls-1" d="M580.1,182.5v59.22l-.05,0s-.06,0-.1.06l-.43.25L573,245.85l-2.76,1.59c-.32.18-.66.37-1,.57l-2.06,1.19-21,12.13c-.72.4-1.41.8-2.09,1.2l-2.31,1.33c-.7.41-1.39.81-2.07,1.19s-1.31.76-1.94,1.12l-1.8,1-7.13,4.12h0L477.52,301h0l-51.29,29.61h0l-51.3,29.61V301l6.3-3.63,3.6-2.08,1-.57,2.06-1.19,3.3-1.9L407.7,282l2.28-1.32,4.34-2.5c.34-.2.67-.4,1-.59l1.94-1.12,1.8-1,1.64-.95,2.74-1.58,1.49-.86,1.27-.73h0l51.29-29.61h0l51.28-29.61h0Z" transform="translate(-114.96 -60.55)"/><path class="cls-1" d="M528.8,152.88v59.24s-51.29,29.62-51.3,29.61V123.28h0Z" transform="translate(-114.96 -60.55)"/><polygon class="cls-1" points="516.42 151.56 516.42 270.01 465.13 240.4 465.13 121.95 516.42 151.56"/><polygon class="cls-1" points="413.84 270.02 413.84 329.24 362.54 299.63 362.54 240.4 413.84 270.02"/><polygon class="cls-1" points="259.96 62.73 259.96 299.63 208.68 270.02 208.67 270.02 208.67 33.11 259.96 62.73"/><polygon class="cls-1" points="157.38 121.95 157.38 240.4 106.09 210.79 106.09 92.34 157.38 121.95"/><polygon class="cls-1" points="413.84 388.46 413.84 506.93 362.54 477.31 362.54 358.86 362.55 358.85 413.84 388.46"/><polygon class="cls-1" points="311.25 329.24 311.25 566.15 259.96 536.53 259.96 299.63 311.25 329.24"/><path class="cls-1" d="M272.34,360.18V419.4s-51.29-29.6-51.29-29.6V330.57Z" transform="translate(-114.96 -60.55)"/><path class="cls-1" d="M169.76,419.4V537.86l-51.3-29.61V389.79S169.76,419.4,169.76,419.4Z" transform="translate(-114.96 -60.55)"/><polygon class="cls-1" points="157.38 418.08 157.38 536.54 157.37 536.54 106.09 506.93 106.09 447.69 157.38 418.08"/><path class="cls-1" d="M477.5,241.72h0l-51.28,29.61h0l-51.29-29.62,1.22-.7,1.89-1.09.47-.28.29-.16,2.57-1.49,4.26-2.46,3-1.72,4.67-2.69.9-.52.7-.41,6.61-3.82,3.06-1.75.11-.07.69-.4,1.27-.74,3.5-2,2.07-1.19,1.24-.72,1.8-1,.44-.26.18-.1,3.16-1.83,7.21-4.16Z" transform="translate(-114.96 -60.55)"/><path class="cls-1" d="M631.38,330.56h0l-1.22.7,0,0-1,.6-.45.26-.83.48-.18.1-.11.06-.12.07-2.45,1.42-23.53,13.58-3.46,2-1.76,1-1.76,1-1.77,1-1.78,1-10.79,6.23-51.3-29.61L477.51,301l51.28-29.61h0L580.09,301Z" transform="translate(-114.96 -60.55)"/><path class="cls-1" d="M631.38,449v59.22l-13.68-7.9-4.67-2.7-8.21-4.74-6.88-4-10.64-6.14-7.21-4.16L528.8,449h0S478.49,420,477.51,419.4h0l-51.28-29.61s-51.3-29.61-51.3-29.61l51.29-29.61,51.29,29.61,51.3,29.61h0l.33.19,1.83,1.06,8.71,5,1,.59,8.06,4.65,4.49,2.59.44.26,3.16,1.82,5.88,3.39,2.25,1.3,1.1.63,3.13,1.81,1,.57,1.88,1.09,1.72,1,.89.52,1.38.79,1.82,1.05,1.63.94.43.25a.6.6,0,0,0,.11.06l0,0Z" transform="translate(-114.96 -60.55)"/><path class="cls-1" d="M374.92,360.18l-51.29,29.61L221.05,330.57h0s-51.29-29.62-51.3-29.61l-51.28-29.61h0V212.11h0l51.28,29.61h0c45.7,26.36,108.19,62.46,153.88,88.83h0Z" transform="translate(-114.96 -60.55)"/><path class="cls-1" d="M528.8,567.48s-51.29,29.61-51.3,29.6l-51.28-29.61h0V508.25Z" transform="translate(-114.96 -60.55)"/><polygon class="cls-1" points="157.37 358.85 106.09 388.46 54.8 358.86 54.8 358.85 3.51 329.24 54.79 299.63 106.09 329.24 106.09 329.25 157.37 358.85"/><path class="cls-1" d="M426.21,626.7l-51.29,29.61L272.34,597.09V537.86Z" transform="translate(-114.96 -60.55)"/><path class="cls-1" d="M477.5,123.27V182.5L323.63,93.66l51.29-29.61s51.29,29.62,51.3,29.61Z" transform="translate(-114.96 -60.55)"/><path class="cls-1" d="M323.63,152.89v59.22L221.05,152.89h0l51.29-29.61h0Z" transform="translate(-114.96 -60.55)"/><polygon class="cls-1" points="208.66 447.71 157.38 418.1 208.67 388.47 259.96 418.09 208.66 447.71"/></svg>